#N canvas 842 23 1718 692 12;
#X obj -26 394 soundfiler;
#X floatatom -26 428 5 0 0 0 - - -;
#X obj -28 494 phasor~;
#X obj -28 525 *~;
#X obj -27 594 *~ 0.1;
#X obj -25 631 dac~;
#X msg -65 362 0;
#X obj -28 557 tabread4~ Sound1;
#N canvas 0 22 450 278 (subpatch) 0;
#X array Sound1 1.01399e+07 float 2;
#X coords 0 1 1.01399e+07 -1 200 140 1;
#X restore 87 409 graph;
#N canvas 0 22 450 278 (subpatch) 0;
#X array Sound2 9.89107e+06 float 2;
#X coords 0 1 9.89107e+06 -1 200 140 1;
#X restore 486 407 graph;
#N canvas 0 22 450 278 (subpatch) 0;
#X array Sound3 9.89798e+06 float 2;
#X coords 0 1 9.89798e+06 -1 200 140 1;
#X restore 877 408 graph;
#X obj -94 219 OSCroute /amoeba1;
#X msg -27 364 read -resize kygoHigher.wav Sound1;
#X obj -91 468 hsl 50 25 0.00441 0.01 0 0 empty empty empty -2 -8 0
10 -4032 -1 -1 26 1;
#X floatatom -94 505 7 0 0 0 - - -;
#X obj -27 315 sel 1;
#X obj -24 13 dumpOSC 8001;
#X floatatom -93 306 5 0 0 0 - - -;
#X obj 367 397 soundfiler;
#X floatatom 367 431 5 0 0 0 - - -;
#X obj 365 497 phasor~;
#X obj 365 528 *~;
#X obj 366 597 *~ 0.1;
#X obj 368 634 dac~;
#X msg 328 365 0;
#X obj 302 471 hsl 50 25 0.00441 0.01 0 0 empty empty empty -2 -8 0
10 -260097 -1 -1 84 1;
#X floatatom 299 508 7 0 0 0 - - -;
#X obj 766 398 soundfiler;
#X floatatom 766 432 5 0 0 0 - - -;
#X obj 764 498 phasor~;
#X obj 764 529 *~;
#X obj 765 598 *~ 0.1;
#X obj 767 635 dac~;
#X msg 727 366 0;
#X obj 701 472 hsl 50 25 0.00441 0.01 0 0 empty empty empty -2 -8 0
10 -257985 -1 -1 295 1;
#X floatatom 698 509 7 0 0 0 - - -;
#X obj 1154 398 soundfiler;
#X floatatom 1154 432 5 0 0 0 - - -;
#X obj 1152 498 phasor~;
#X obj 1152 529 *~;
#X obj 1153 598 *~ 0.1;
#X obj 1155 635 dac~;
#X msg 1115 366 0;
#X obj 1089 472 hsl 50 25 0.00441 0.01 0 0 empty empty empty -2 -8
0 10 -258113 -1 -1 50 1;
#X floatatom 1086 509 7 0 0 0 - - -;
#X obj 366 318 sel 3;
#X obj 365 560 tabread4~ Sound2;
#X obj 764 561 tabread4~ Sound3;
#X obj 1152 561 tabread4~ Sound4;
#N canvas 0 22 450 278 (subpatch) 0;
#X array Sound4 1.08495e+07 float 2;
#X coords 0 1 1.08495e+07 -1 200 140 1;
#X restore 1270 409 graph;
#X floatatom 34 279 5 0 0 0 - - -;
#X obj -94 279 unpack f f;
#X obj -94 251 OSCroute /info1;
#X obj 34 219 OSCroute /input1;
#X floatatom 299 422 5 0 0 0 - - -;
#X obj 34 251 unpack f f;
#X obj -27 460 expr 44100/$f1;
#X obj 366 463 expr 44100/$f1;
#X obj 765 464 expr 44100/$f1;
#X obj 1153 464 expr 44100/$f1;
#X floatatom 170 308 5 0 0 0 - - -;
#X obj 120 280 unpack f f;
#X msg 366 367 read -resize kygoRaging.wav Sound2;
#X msg 765 368 read -resize kygoStole.wav Sound3;
#X obj 120 248 OSCroute /input1_1;
#X obj 120 307 sel 0;
#X floatatom 299 308 5 0 0 0 - - -;
#X floatatom 426 281 5 0 0 0 - - -;
#X obj 298 281 unpack f f;
#X obj 426 253 unpack f f;
#X floatatom 562 310 5 0 0 0 - - -;
#X obj 512 282 unpack f f;
#X obj 512 309 sel 0;
#X floatatom 698 307 5 0 0 0 - - -;
#X floatatom 825 280 5 0 0 0 - - -;
#X obj 697 280 unpack f f;
#X obj 825 252 unpack f f;
#X floatatom 961 309 5 0 0 0 - - -;
#X obj 911 281 unpack f f;
#X obj 911 308 sel 0;
#X floatatom 1087 300 5 0 0 0 - - -;
#X floatatom 1214 273 5 0 0 0 - - -;
#X obj 1086 273 unpack f f;
#X obj 1214 245 unpack f f;
#X floatatom 1350 302 5 0 0 0 - - -;
#X obj 1300 274 unpack f f;
#X obj 1300 301 sel 0;
#X obj 298 221 OSCroute /amoeba2;
#X obj 298 253 OSCroute /info2;
#X obj 426 221 OSCroute /input2;
#X obj 512 250 OSCroute /input2_2;
#X obj 697 220 OSCroute /amoeba3;
#X obj 697 252 OSCroute /info3;
#X obj 825 220 OSCroute /input3;
#X obj 911 249 OSCroute /input3_3;
#X obj 765 319 sel 7;
#X obj 1153 319 sel 7;
#X obj 1086 213 OSCroute /amoeba4;
#X obj 1086 245 OSCroute /info4;
#X obj 1214 213 OSCroute /input4;
#X obj 1300 242 OSCroute /input4_4;
#X msg 1153 368 read -resize kygoHere.wav Sound4;
#X obj 1493 456 vsl 15 128 0 1 0 0 empty empty empty 0 -9 0 10 -159808
-1 -1 701 1;
#X floatatom 1493 300 5 0 0 0 - - -;
#X obj 1492 273 unpack f f;
#X obj 1492 213 OSCroute /amoeba5;
#X obj 1492 245 OSCroute /info5;
#X connect 0 0 1 0;
#X connect 1 0 3 1;
#X connect 1 0 56 0;
#X connect 2 0 3 0;
#X connect 3 0 7 0;
#X connect 4 0 5 0;
#X connect 4 0 5 1;
#X connect 6 0 2 0;
#X connect 7 0 4 0;
#X connect 11 0 52 0;
#X connect 12 0 0 0;
#X connect 13 0 2 0;
#X connect 13 0 14 0;
#X connect 15 0 12 0;
#X connect 16 0 11 0;
#X connect 16 0 53 0;
#X connect 16 0 87 0;
#X connect 16 0 64 0;
#X connect 16 0 90 0;
#X connect 16 0 91 0;
#X connect 16 0 93 0;
#X connect 16 0 94 0;
#X connect 16 0 97 0;
#X connect 16 0 99 0;
#X connect 16 0 100 0;
#X connect 16 0 89 0;
#X connect 16 0 105 0;
#X connect 17 0 13 0;
#X connect 18 0 19 0;
#X connect 19 0 21 1;
#X connect 19 0 57 0;
#X connect 20 0 21 0;
#X connect 21 0 46 0;
#X connect 22 0 23 0;
#X connect 22 0 23 1;
#X connect 24 0 20 0;
#X connect 25 0 20 0;
#X connect 25 0 26 0;
#X connect 27 0 28 0;
#X connect 28 0 30 1;
#X connect 28 0 58 0;
#X connect 29 0 30 0;
#X connect 30 0 47 0;
#X connect 31 0 32 0;
#X connect 31 0 32 1;
#X connect 33 0 29 0;
#X connect 34 0 29 0;
#X connect 34 0 35 0;
#X connect 36 0 37 0;
#X connect 37 0 39 1;
#X connect 37 0 59 0;
#X connect 38 0 39 0;
#X connect 39 0 48 0;
#X connect 40 0 41 0;
#X connect 40 0 41 1;
#X connect 42 0 38 0;
#X connect 43 0 38 0;
#X connect 43 0 44 0;
#X connect 45 0 62 0;
#X connect 46 0 22 0;
#X connect 47 0 31 0;
#X connect 48 0 40 0;
#X connect 50 0 15 0;
#X connect 51 0 17 0;
#X connect 52 0 51 0;
#X connect 53 0 55 0;
#X connect 54 0 25 0;
#X connect 55 0 50 0;
#X connect 56 0 2 0;
#X connect 57 0 20 0;
#X connect 58 0 29 0;
#X connect 59 0 38 0;
#X connect 61 0 60 0;
#X connect 61 0 65 0;
#X connect 62 0 18 0;
#X connect 63 0 27 0;
#X connect 64 0 61 0;
#X connect 65 0 6 0;
#X connect 66 0 54 0;
#X connect 67 0 45 0;
#X connect 68 0 66 0;
#X connect 69 0 67 0;
#X connect 71 0 70 0;
#X connect 71 0 72 0;
#X connect 72 0 24 0;
#X connect 73 0 34 0;
#X connect 74 0 95 0;
#X connect 75 0 73 0;
#X connect 76 0 74 0;
#X connect 78 0 77 0;
#X connect 78 0 79 0;
#X connect 79 0 33 0;
#X connect 80 0 43 0;
#X connect 81 0 96 0;
#X connect 82 0 80 0;
#X connect 83 0 81 0;
#X connect 85 0 84 0;
#X connect 85 0 86 0;
#X connect 86 0 42 0;
#X connect 87 0 88 0;
#X connect 88 0 68 0;
#X connect 89 0 69 0;
#X connect 90 0 71 0;
#X connect 91 0 92 0;
#X connect 92 0 75 0;
#X connect 93 0 76 0;
#X connect 94 0 78 0;
#X connect 95 0 63 0;
#X connect 96 0 101 0;
#X connect 97 0 98 0;
#X connect 98 0 82 0;
#X connect 99 0 83 0;
#X connect 100 0 85 0;
#X connect 101 0 36 0;
#X connect 102 0 40 1;
#X connect 102 0 31 1;
#X connect 102 0 22 1;
#X connect 102 0 4 1;
#X connect 103 0 102 0;
#X connect 104 0 103 0;
#X connect 105 0 106 0;
#X connect 106 0 104 0;
